<?xml version="1.0" encoding="UTF-8"?>
<svg version="1.1" xmlns="http://www.w3.org/2000/svg" width="512" height="512">
<path d="M0 0 C1.53117112 -0.0027014 3.06234055 -0.00658918 4.59350586 -0.01159668 C7.78743987 -0.01746138 10.98092345 -0.00902781 14.17480469 0.00976562 C18.24313727 0.03255398 22.31041392 0.01941443 26.37870789 -0.00452423 C29.53600846 -0.01906502 32.69306384 -0.01433867 35.85037231 -0.00401306 C37.34929534 -0.00136855 38.84824155 -0.00453423 40.34713745 -0.01393127 C52.70159911 -0.07441131 61.9441677 1.59404987 71.0859375 10.33203125 C80.7237699 21.05554833 80.35678001 34.0606094 80.28955078 47.72119141 C80.28898572 49.33840935 80.28930509 50.95562781 80.29043579 52.57284546 C80.29100659 56.93579617 80.27929677 61.29863556 80.26528788 65.66156054 C80.25273473 70.23126687 80.25160642 74.80097611 80.24923706 79.37069702 C80.24303572 88.01188446 80.2266432 96.65302094 80.20653808 105.294186 C80.18413709 115.13702878 80.17317511 124.97987407 80.16314721 134.82273602 C80.14227571 155.05893573 80.10712603 175.29508965 80.0625 195.53125 C80.89241864 195.52940641 81.72233728 195.52756283 82.57740498 195.52566338 C102.80167633 195.48143171 123.02593931 195.44836785 143.25024891 195.42762566 C153.03070123 195.41732744 162.81112119 195.40329498 172.59155273 195.38037109 C181.11942034 195.36039262 189.64726451 195.347523 198.17515486 195.34307301 C202.68764409 195.34047317 207.20006628 195.33439286 211.71253395 195.31978989 C215.96667415 195.30613546 220.22072019 195.30204314 224.47488022 195.30503464 C226.02960791 195.30448797 227.584339 195.30055761 229.13904762 195.29283905 C243.16179414 195.22668232 255.21772572 195.6353404 266.1015625 205.3515625 C275.01058079 214.71550938 275.67117466 225.11896524 275.59375 237.46875 C275.5964514 238.99992112 275.60033918 240.53109055 275.60534668 242.06225586 C275.61121138 245.25618987 275.60277781 248.44967345 275.58398438 251.64355469 C275.56119602 255.71188727 275.57433557 259.77916392 275.59827423 263.84745789 C275.61281502 267.00475846 275.60808867 270.16181384 275.59776306 273.31912231 C275.59511855 274.81804534 275.59828423 276.31699155 275.60768127 277.81588745 C275.66814519 290.16705523 274.00409734 299.42111329 265.2578125 308.5546875 C254.37263262 318.35522312 240.71661822 317.82713938 226.85083008 317.75830078 C225.24331672 317.75773556 223.63580285 317.7580554 222.02828979 317.75918579 C217.69638862 317.75975596 213.36459984 317.74805643 209.03272462 317.73403788 C204.49372072 317.72147415 199.9547138 317.72035559 195.41569519 317.71798706 C186.83474799 317.71178879 178.2538522 317.6954005 169.67292756 317.67528808 C159.89777499 317.65287743 150.12261988 317.6419227 140.34744799 317.63189721 C120.25243672 317.61103269 100.15747161 317.57588908 80.0625 317.53125 C80.06526538 318.36540058 80.06803076 319.19955116 80.07087994 320.05897903 C80.13724497 340.39207645 80.18683169 360.72515509 80.21793652 381.05833817 C80.23337988 390.89147084 80.25442085 400.72453104 80.28881836 410.55761719 C80.31879837 419.13200645 80.33809338 427.7063432 80.34476548 436.28078341 C80.34866321 440.81737443 80.35777024 445.35381527 80.37969017 449.89035797 C80.40019148 454.16833443 80.40630649 458.44610017 80.40182304 462.72412109 C80.40264218 464.28649799 80.40852607 465.84888261 80.42011642 467.41121674 C80.51948929 481.50869064 79.27754642 493.53094179 69.46875 504.27734375 C60.49662723 512.76277118 49.85169036 513.13601829 38.125 513.0625 C36.59382888 513.0652014 35.06265945 513.06908918 33.53149414 513.07409668 C30.33756013 513.07996138 27.14407655 513.07152781 23.95019531 513.05273438 C19.88186273 513.02994602 15.81458608 513.04308557 11.74629211 513.06702423 C8.58899154 513.08156502 5.43193616 513.07683867 2.27462769 513.06651306 C0.77570466 513.06386855 -0.72324155 513.06703423 -2.22213745 513.07643127 C-14.57659911 513.13691131 -23.8191677 511.46845013 -32.9609375 502.73046875 C-42.5987699 492.00695167 -42.23178001 479.0018906 -42.16455078 465.34130859 C-42.16398572 463.72409065 -42.16430509 462.10687219 -42.16543579 460.48965454 C-42.16600659 456.12670383 -42.15429677 451.76386444 -42.14028788 447.40093946 C-42.12773473 442.83123313 -42.12660642 438.26152389 -42.12423706 433.69180298 C-42.11803572 425.05061554 -42.1016432 416.40947906 -42.08153808 407.768314 C-42.05913709 397.92547122 -42.04817511 388.08262593 -42.03814721 378.23976398 C-42.01727571 358.00356427 -41.98212603 337.76741035 -41.9375 317.53125 C-43.18237796 317.53401538 -43.18237796 317.53401538 -44.45240498 317.53683662 C-64.67667633 317.58106829 -84.90093931 317.61413215 -105.12524891 317.63487434 C-114.90570123 317.64517256 -124.68612119 317.65920502 -134.46655273 317.68212891 C-142.99442034 317.70210738 -151.52226451 317.714977 -160.05015486 317.71942699 C-164.56264409 317.72202683 -169.07506628 317.72810714 -173.58753395 317.74271011 C-177.84167415 317.75636454 -182.09572019 317.76045686 -186.34988022 317.75746536 C-187.90460791 317.75801203 -189.459339 317.76194239 -191.01404762 317.76966095 C-205.03679414 317.83581768 -217.09272572 317.4271596 -227.9765625 307.7109375 C-236.88558079 298.34699062 -237.54617466 287.94353476 -237.46875 275.59375 C-237.4714514 274.06257888 -237.47533918 272.53140945 -237.48034668 271.00024414 C-237.48621138 267.80631013 -237.47777781 264.61282655 -237.45898438 261.41894531 C-237.43619602 257.35061273 -237.44933557 253.28333608 -237.47327423 249.21504211 C-237.48781502 246.05774154 -237.48308867 242.90068616 -237.47276306 239.74337769 C-237.47011855 238.24445466 -237.47328423 236.74550845 -237.48268127 235.24661255 C-237.54314519 222.89544477 -235.87909734 213.64138671 -227.1328125 204.5078125 C-216.24763262 194.70727688 -202.59161822 195.23536062 -188.72583008 195.30419922 C-187.11831672 195.30476444 -185.51080285 195.3044446 -183.90328979 195.30331421 C-179.57138862 195.30274404 -175.23959984 195.31444357 -170.90772462 195.32846212 C-166.36872072 195.34102585 -161.8297138 195.34214441 -157.29069519 195.34451294 C-148.70974799 195.35071121 -140.1288522 195.3670995 -131.54792756 195.38721192 C-121.77277499 195.40962257 -111.99761988 195.4205773 -102.22244799 195.43060279 C-82.12743672 195.45146731 -62.03247161 195.48661092 -41.9375 195.53125 C-41.94026538 194.69709942 -41.94303076 193.86294884 -41.94587994 193.00352097 C-42.01224497 172.67042355 -42.06183169 152.33734491 -42.09293652 132.00416183 C-42.10837988 122.17102916 -42.12942085 112.33796896 -42.16381836 102.50488281 C-42.19379837 93.93049355 -42.21309338 85.3561568 -42.21976548 76.78171659 C-42.22366321 72.24512557 -42.23277024 67.70868473 -42.25469017 63.17214203 C-42.27519148 58.89416557 -42.28130649 54.61639983 -42.27682304 50.33837891 C-42.27764218 48.77600201 -42.28352607 47.21361739 -42.29511642 45.65128326 C-42.39448929 31.55380936 -41.15254642 19.53155821 -31.34375 8.78515625 C-22.37162723 0.29972882 -11.72669036 -0.07351829 0 0 Z " fill="#FF2046" transform="translate(236.9375,-0.53125)"/>
</svg>
