<?xml version="1.0" encoding="UTF-8"?>
<svg version="1.1" xmlns="http://www.w3.org/2000/svg" width="512" height="512">
<path d="M0 0 C1.19813828 -0.0049649 2.39627655 -0.00992981 3.63072205 -0.01504517 C6.89589648 -0.02708337 10.16103527 -0.03459443 13.42622781 -0.03905582 C15.47725645 -0.04200618 17.52827974 -0.04611466 19.57930565 -0.05056 C26.02819454 -0.06421288 32.47707091 -0.07388795 38.92597324 -0.07776189 C46.31018009 -0.08222476 53.6942002 -0.09969909 61.07835037 -0.12876248 C66.82402349 -0.15057225 72.56964485 -0.16047646 78.31535882 -0.16180301 C81.72866203 -0.16283822 85.14178927 -0.16846385 88.55504799 -0.18662262 C107.33302672 -0.27163115 125.93627632 0.07275631 143.97924805 5.91113281 C144.80021973 6.16934814 145.62119141 6.42756348 146.46704102 6.69360352 C166.77277953 13.2621814 185.12161748 23.53909698 200.72924805 38.16113281 C201.30126953 38.69077637 201.87329102 39.22041992 202.46264648 39.76611328 C225.14711428 60.95932173 244.91608244 91.68324308 246.16674805 123.53613281 C245.72160878 138.78215269 240.30732693 154.13321007 229.72924805 165.32519531 C214.95607702 178.88650466 198.81292113 183.3235273 179.21807861 183.29484558 C178.07631534 183.29711114 176.93455207 183.29937669 175.75818992 183.3017109 C171.94156612 183.30802877 168.12497804 183.30722296 164.30834961 183.30639648 C161.56805284 183.30884679 158.82775855 183.31276403 156.08746338 183.3165741 C149.42162481 183.3248641 142.75579508 183.32762819 136.08995178 183.32818647 C130.66881007 183.32866243 125.24767125 183.33072115 119.82653046 183.3338871 C104.44007417 183.34268927 89.05362485 183.34730718 73.66716602 183.34655663 C72.83848317 183.34651667 72.00980032 183.34647671 71.15600586 183.34643555 C69.91145526 183.34637423 69.91145526 183.34637423 68.64176223 183.34631167 C55.19999054 183.34590535 41.75824688 183.35547245 28.31648329 183.36957391 C14.49837845 183.38395523 0.68028726 183.39084313 -13.13782525 183.38998014 C-20.88911387 183.38964877 -28.64037311 183.39236945 -36.39165497 183.40315819 C-42.99191053 183.41228633 -49.59212339 183.41441951 -56.19238254 183.40764876 C-59.55591582 183.40439515 -62.91930076 183.40538253 -66.28283691 183.41300201 C-69.93917965 183.4207464 -73.59530963 183.41606078 -77.25164795 183.40837097 C-78.30070242 183.41351453 -79.34975688 183.4186581 -80.43060088 183.42395753 C-96.19793341 183.35103182 -109.54569493 179.62204696 -122.27075195 170.16113281 C-123.28137695 169.43925781 -124.29200195 168.71738281 -125.33325195 167.97363281 C-137.49073326 157.40337823 -142.92796045 141.72114606 -144.59106445 126.16503906 C-145.67168042 99.61790685 -128.91086518 69.99943375 -111.63061523 50.82788086 C-109.2192198 48.23043741 -106.74679065 45.69704727 -104.27075195 43.16113281 C-103.64297852 42.45988281 -103.01520508 41.75863281 -102.3684082 41.03613281 C-77.04161239 13.46955234 -36.5298768 0.03664278 0 0 Z " fill="#F9C0C8" transform="translate(205.270751953125,281.8388671875)"/>
<path d="M0 0 C25.74339059 19.28269411 41.91987282 45.28950189 46.64404297 77.23144531 C48.63664909 112.50744469 41.15148108 142.51322837 17.38232422 169.27050781 C-0.58921896 188.94554459 -26.94558338 202.69210998 -53.74584961 204.4543457 C-89.46443773 205.58250631 -118.96064897 196.96242754 -145.35595703 172.23144531 C-165.59668055 152.53690005 -177.23836101 125.14604607 -177.64892578 97.00219727 C-177.8194689 62.43950214 -167.15804586 34.63815977 -142.96142578 9.77050781 C-104.83225222 -26.27199456 -42.60535137 -30.84907654 0 0 Z " fill="#F9C0C8" transform="translate(321.35595703125,67.7685546875)"/>
<path d="M0 0 C1.19813828 -0.0049649 2.39627655 -0.00992981 3.63072205 -0.01504517 C6.89589648 -0.02708337 10.16103527 -0.03459443 13.42622781 -0.03905582 C15.47725645 -0.04200618 17.52827974 -0.04611466 19.57930565 -0.05056 C26.02819454 -0.06421288 32.47707091 -0.07388795 38.92597324 -0.07776189 C46.31018009 -0.08222476 53.6942002 -0.09969909 61.07835037 -0.12876248 C66.82402349 -0.15057225 72.56964485 -0.16047646 78.31535882 -0.16180301 C81.72866203 -0.16283822 85.14178927 -0.16846385 88.55504799 -0.18662262 C107.33302672 -0.27163115 125.93627632 0.07275631 143.97924805 5.91113281 C144.80021973 6.16934814 145.62119141 6.42756348 146.46704102 6.69360352 C166.77277953 13.2621814 185.12161748 23.53909698 200.72924805 38.16113281 C201.30126953 38.69077637 201.87329102 39.22041992 202.46264648 39.76611328 C225.14711428 60.95932173 244.91608244 91.68324308 246.16674805 123.53613281 C245.72160878 138.78215269 240.30732693 154.13321007 229.72924805 165.32519531 C214.95607702 178.88650466 198.81292113 183.3235273 179.21807861 183.29484558 C178.07631534 183.29711114 176.93455207 183.29937669 175.75818992 183.3017109 C171.94156612 183.30802877 168.12497804 183.30722296 164.30834961 183.30639648 C161.56805284 183.30884679 158.82775855 183.31276403 156.08746338 183.3165741 C149.42162481 183.3248641 142.75579508 183.32762819 136.08995178 183.32818647 C130.66881007 183.32866243 125.24767125 183.33072115 119.82653046 183.3338871 C104.44007417 183.34268927 89.05362485 183.34730718 73.66716602 183.34655663 C72.83848317 183.34651667 72.00980032 183.34647671 71.15600586 183.34643555 C69.91145526 183.34637423 69.91145526 183.34637423 68.64176223 183.34631167 C55.19999054 183.34590535 41.75824688 183.35547245 28.31648329 183.36957391 C14.49837845 183.38395523 0.68028726 183.39084313 -13.13782525 183.38998014 C-20.88911387 183.38964877 -28.64037311 183.39236945 -36.39165497 183.40315819 C-42.99191053 183.41228633 -49.59212339 183.41441951 -56.19238254 183.40764876 C-59.55591582 183.40439515 -62.91930076 183.40538253 -66.28283691 183.41300201 C-69.93917965 183.4207464 -73.59530963 183.41606078 -77.25164795 183.40837097 C-78.30070242 183.41351453 -79.34975688 183.4186581 -80.43060088 183.42395753 C-96.19793341 183.35103182 -109.54569493 179.62204696 -122.27075195 170.16113281 C-123.28137695 169.43925781 -124.29200195 168.71738281 -125.33325195 167.97363281 C-137.49073326 157.40337823 -142.92796045 141.72114606 -144.59106445 126.16503906 C-145.67168042 99.61790685 -128.91086518 69.99943375 -111.63061523 50.82788086 C-109.2192198 48.23043741 -106.74679065 45.69704727 -104.27075195 43.16113281 C-103.64297852 42.45988281 -103.01520508 41.75863281 -102.3684082 41.03613281 C-77.04161239 13.46955234 -36.5298768 0.03664278 0 0 Z M-38.77075195 39.28613281 C-39.55699951 39.58398682 -40.34324707 39.88184082 -41.15332031 40.1887207 C-53.37122915 44.98760348 -64.42451712 51.46017893 -74.27075195 60.16113281 C-75.22336914 60.9590625 -76.17598633 61.75699219 -77.1574707 62.57910156 C-93.20715793 76.30124794 -109.09218099 98.89821879 -111.63793945 120.23925781 C-112.00403735 128.81025562 -109.78896882 135.11682644 -104.64575195 141.91113281 C-99.50231142 147.3222103 -93.0823289 150.35118574 -85.63287354 150.79033852 C-83.54001157 150.81754442 -81.44668466 150.81788632 -79.35375977 150.79605103 C-77.61193357 150.80775096 -77.61193357 150.80775096 -75.83491898 150.81968725 C-72.63844246 150.83608799 -69.44292837 150.8303122 -66.24647713 150.81475616 C-62.78898332 150.80338727 -59.33161411 150.82093259 -55.87414551 150.83465576 C-49.11157369 150.85683407 -42.34928008 150.85211129 -35.58669758 150.83759256 C-30.08833352 150.82627891 -24.59004717 150.82477858 -19.0916748 150.83021164 C-18.30771434 150.8309778 -17.52375388 150.83174397 -16.71603703 150.83253335 C-15.12320167 150.83413205 -13.53036632 150.83575312 -11.93753099 150.83739631 C2.98199663 150.85163796 17.9013704 150.83528601 32.82087278 150.80839448 C45.60941864 150.7860571 58.39773753 150.78993768 71.1862793 150.81298828 C86.05412657 150.83977435 100.92183915 150.85026481 115.78970718 150.83492696 C117.3765284 150.8333343 118.96334964 150.83176244 120.5501709 150.83021164 C121.33082122 150.82944026 122.11147153 150.82866888 122.91577792 150.82787413 C128.40453764 150.82356554 133.89321158 150.8308255 139.38195801 150.84260941 C146.07527645 150.8566642 152.76830188 150.85277225 159.46158695 150.82620569 C162.87360817 150.81310714 166.28514172 150.80784632 169.69715881 150.82445145 C173.40267522 150.83814573 177.10682609 150.82094057 180.81225586 150.79605103 C181.88133556 150.80720463 182.95041527 150.81835824 184.05189133 150.82984984 C192.15343731 150.72453479 198.77741782 148.73968956 204.87581253 143.2173239 C210.45675539 137.39407785 212.79445199 131.6611128 213.29174805 123.66113281 C212.6342877 100.935873 194.30996931 77.09415666 178.72924805 62.16113281 C167.56372203 52.09361684 154.39319746 44.68460542 140.41674805 39.28613281 C139.73209473 39.01196533 139.04744141 38.73779785 138.34204102 38.45532227 C120.70852934 32.04621133 101.54815397 32.71409101 83.0925293 32.76269531 C80.35548074 32.76202329 77.61843924 32.75775608 74.88139343 32.7539978 C69.17723143 32.74858249 63.47318701 32.75562167 57.76904297 32.77001953 C51.21996803 32.78636153 44.6711732 32.78102923 38.12210494 32.76454031 C32.44506163 32.75083178 26.76810154 32.74905036 21.09104699 32.75685632 C17.72384905 32.76147892 14.35688528 32.76109136 10.98967934 32.75224686 C-6.24395524 32.71689042 -22.48792386 32.99819159 -38.77075195 39.28613281 Z " fill="#EF344E" transform="translate(205.270751953125,281.8388671875)"/>
<path d="M0 0 C25.74339059 19.28269411 41.91987282 45.28950189 46.64404297 77.23144531 C48.63664909 112.50744469 41.15148108 142.51322837 17.38232422 169.27050781 C-0.58921896 188.94554459 -26.94558338 202.69210998 -53.74584961 204.4543457 C-89.46443773 205.58250631 -118.96064897 196.96242754 -145.35595703 172.23144531 C-165.59668055 152.53690005 -177.23836101 125.14604607 -177.64892578 97.00219727 C-177.8194689 62.43950214 -167.15804586 34.63815977 -142.96142578 9.77050781 C-104.83225222 -26.27199456 -42.60535137 -30.84907654 0 0 Z M-116.35595703 30.23144531 C-117.14486328 30.85792969 -117.93376953 31.48441406 -118.74658203 32.12988281 C-133.33746738 44.28895393 -143.10339736 63.45364183 -145.35595703 82.23144531 C-146.91136443 104.74895859 -141.7478795 125.47481013 -127.35595703 143.23144531 C-126.81326172 143.93785156 -126.27056641 144.64425781 -125.71142578 145.37207031 C-114.04511491 159.7917441 -94.70175878 169.87477117 -76.35595703 172.23144531 C-55.3064097 174.2556021 -34.34160722 169.58551357 -17.35595703 156.60644531 C-16.01637487 155.48889334 -14.68225701 154.36472866 -13.35595703 153.23144531 C-11.84001953 152.08675781 -11.84001953 152.08675781 -10.29345703 150.91894531 C4.31428487 137.55441549 14.060305 117.19682327 14.97998047 97.32128906 C15.36224933 75.75426186 10.02189738 56.74701429 -4.35595703 40.23144531 C-5.02304687 39.35166016 -5.02304687 39.35166016 -5.70361328 38.45410156 C-17.85601357 22.82958691 -38.23709193 14.79028332 -57.35595703 12.23144531 C-79.35403552 10.81203488 -99.22551621 16.10155941 -116.35595703 30.23144531 Z " fill="#EF334D" transform="translate(321.35595703125,67.7685546875)"/>
<path d="M0 0 C0.66 0.33 1.32 0.66 2 1 C-6.91 9.91 -15.82 18.82 -25 28 C-25 23.66465015 -22.34910821 21.779596 -19.5 18.8125 C-18.95335693 18.23314697 -18.40671387 17.65379395 -17.84350586 17.05688477 C-16.23811579 15.36224077 -14.62172755 13.67900142 -13 12 C-12.20722656 11.17757813 -11.41445312 10.35515625 -10.59765625 9.5078125 C-7.23439562 6.08645332 -3.84726947 2.8854521 0 0 Z " fill="#F35E73" transform="translate(114,313)"/>
<path d="M0 0 C0.66 0.33 1.32 0.66 2 1 C-4.6 7.6 -11.2 14.2 -18 21 C-18 16.61305328 -15.24722277 14.63981539 -12.375 11.625 C-11.85292969 11.06039062 -11.33085937 10.49578125 -10.79296875 9.9140625 C-7.40617436 6.30148181 -3.86293875 3.09731125 0 0 Z " fill="#F25268" transform="translate(186,71)"/>
</svg>
