<?xml version="1.0" encoding="UTF-8"?>
<svg version="1.1" xmlns="http://www.w3.org/2000/svg" width="512" height="512">
<path d="M0 0 C1.01790619 0.00215515 2.03581238 0.0043103 3.08456421 0.00653076 C17.69363523 0.05620146 32.02575853 0.30709809 46.375 3.3125 C47.34985352 3.51117676 48.32470703 3.70985352 49.32910156 3.91455078 C108.89482498 16.37463238 165.24866419 48.2648637 202.375 97.3125 C202.79023926 97.85132812 203.20547852 98.39015625 203.63330078 98.9453125 C228.13415115 130.81517547 244.62642134 167.36831241 252.6875 206.75 C252.83485596 207.46889404 252.98221191 208.18778809 253.1340332 208.9284668 C256.10789088 224.57475609 256.74800362 240.04818046 256.6875 255.9375 C256.68534485 256.95540619 256.6831897 257.97331238 256.68096924 259.02206421 C256.63129854 273.63113523 256.38040191 287.96325853 253.375 302.3125 C253.07698486 303.77478027 253.07698486 303.77478027 252.77294922 305.26660156 C242.52138226 354.27446698 220.18217348 398.27864199 185.375 434.3125 C184.77606934 434.93334473 184.17713867 435.55418945 183.56005859 436.19384766 C175.89623497 444.09500259 168.15501606 451.64016955 159.375 458.3125 C158.83472168 458.72918945 158.29444336 459.14587891 157.73779297 459.57519531 C125.8687531 484.07334707 89.31685217 500.56439938 49.9375 508.625 C49.21860596 508.77235596 48.49971191 508.91971191 47.7590332 509.0715332 C33.08339502 511.86090125 18.55831162 512.66142619 3.64770508 512.62817383 C0.70811513 512.6250221 -2.2304558 512.64854926 -5.16992188 512.67382812 C-18.54306192 512.71848737 -31.43916711 511.51301542 -44.625 509.3125 C-46.33055054 509.03031616 -46.33055054 509.03031616 -48.07055664 508.74243164 C-50.6662622 508.27617402 -53.23774939 507.7574418 -55.8125 507.1875 C-57.20142456 506.88054199 -57.20142456 506.88054199 -58.6184082 506.56738281 C-103.71300222 496.08183329 -144.40193368 473.34639441 -177.625 441.3125 C-178.58889648 440.38945068 -178.58889648 440.38945068 -179.57226562 439.44775391 C-188.74836539 430.62136647 -197.09816554 421.58141996 -204.625 411.3125 C-205.26211914 410.45857666 -205.26211914 410.45857666 -205.91210938 409.58740234 C-212.42768015 400.84658179 -218.26088547 391.80163672 -223.625 382.3125 C-224.0271875 381.60528809 -224.429375 380.89807617 -224.84375 380.16943359 C-237.8691741 357.03404164 -246.61801461 331.86287591 -251.9375 305.875 C-252.08485596 305.15610596 -252.23221191 304.43721191 -252.3840332 303.6965332 C-255.35789088 288.05024391 -255.99800362 272.57681954 -255.9375 256.6875 C-255.93534485 255.66959381 -255.9331897 254.65168762 -255.93096924 253.60293579 C-255.88129854 238.99386477 -255.63040191 224.66174147 -252.625 210.3125 C-252.42632324 209.33764648 -252.22764648 208.36279297 -252.02294922 207.35839844 C-241.90232806 158.9765226 -219.9858123 114.98821731 -185.625 79.3125 C-184.99287598 78.65314453 -184.36075195 77.99378906 -183.70947266 77.31445312 C-174.56502521 67.82619695 -165.26765991 59.0862956 -154.625 51.3125 C-153.47394983 50.45443848 -152.32290823 49.59636549 -151.171875 48.73828125 C-142.98224019 42.70072604 -134.47961724 37.31792698 -125.625 32.3125 C-124.91778809 31.9103125 -124.21057617 31.508125 -123.48193359 31.09375 C-100.34654164 18.0683259 -75.17537591 9.31948539 -49.1875 4 C-48.46860596 3.85264404 -47.74971191 3.70528809 -47.0090332 3.5534668 C-31.36274391 0.57960912 -15.88931954 -0.06050362 0 0 Z M-45.46972656 145.76904297 C-46.54900285 146.84424936 -47.62891526 147.91881754 -48.70941162 148.99279785 C-51.6293585 151.89911682 -54.53979444 154.81478661 -57.44816303 157.73268652 C-60.49851933 160.79066091 -63.55621446 163.84128315 -66.61273193 166.89309692 C-71.74234646 172.01726099 -76.8656199 177.14770121 -81.98535156 182.28173828 C-87.89930848 188.21202901 -93.82400688 194.13142337 -99.75438333 200.04529083 C-104.85306121 205.13034405 -109.94585614 210.22123367 -115.03380179 215.3170253 C-118.06951592 218.35740941 -121.1072038 221.39574702 -124.15021515 224.42882919 C-127.01015893 227.28009106 -129.86263373 230.13862259 -132.70957184 233.00286865 C-133.75386794 234.05112264 -134.80070897 235.09684856 -135.85029602 236.13980484 C-137.28558871 237.56686531 -138.71070026 239.00414369 -140.13531494 240.44186401 C-140.93463566 241.24231581 -141.73395638 242.0427676 -142.55749893 242.86747551 C-145.99060537 246.92746341 -148.05382167 250.89547214 -148.0625 256.25 C-148.08183594 257.04277344 -148.10117188 257.83554687 -148.12109375 258.65234375 C-146.49661978 267.36310575 -139.16690967 273.19674919 -133.16845703 279.15722656 C-132.09325064 280.23650285 -131.01868246 281.31641526 -129.94470215 282.39691162 C-127.03838318 285.3168585 -124.12271339 288.22729444 -121.20481348 291.13566303 C-118.14683909 294.18601933 -115.09621685 297.24371446 -112.04440308 300.30023193 C-106.92023901 305.42984646 -101.78979879 310.5531199 -96.65576172 315.67285156 C-90.72547099 321.58680848 -84.80607663 327.51150688 -78.89220917 333.44188333 C-73.80715595 338.54056121 -68.71626633 343.63335614 -63.6204747 348.72130179 C-60.58009059 351.75701592 -57.54175298 354.7947038 -54.50867081 357.83771515 C-51.65740894 360.69765893 -48.79887741 363.55013373 -45.93463135 366.39707184 C-44.88637736 367.44136794 -43.84065144 368.48820897 -42.79769516 369.53779602 C-41.37063469 370.97308871 -39.93335631 372.39820026 -38.49563599 373.82281494 C-37.69518419 374.62213566 -36.8947324 375.42145638 -36.07002449 376.24499893 C-32.3490995 379.39139539 -28.37292626 381.90586898 -23.375 381.5625 C-16.87977295 380.53237217 -13.05808486 375.81625723 -8.625 371.3125 C-7.5630714 370.30263973 -6.49784205 369.29624138 -5.4296875 368.29296875 C-4.34784037 367.25898095 -3.26709497 366.22383908 -2.1875 365.1875 C-1.67920654 364.70949951 -1.17091309 364.23149902 -0.6472168 363.73901367 C3.74114553 359.41541336 6.15631931 355.21001914 6.625 349 C3.20969908 338.9248623 -8.35552311 330.4479947 -15.87890625 322.9609375 C-17.03211636 321.80959775 -18.18510197 320.65803311 -19.33787537 319.5062561 C-22.33909553 316.5088125 -25.34330855 313.51438687 -28.34820557 310.52062988 C-31.42734863 307.45180683 -34.50358179 304.38006974 -37.58007812 301.30859375 C-43.59224541 295.30707778 -49.60758507 289.30875439 -55.625 283.3125 C-54.654087 283.31011165 -53.683174 283.30772329 -52.68283939 283.30526257 C-29.04600108 283.24643836 -5.40926446 283.1705374 18.22746181 283.07678509 C29.65806086 283.03184129 41.08862885 282.9924233 52.51928711 282.96606445 C62.48356425 282.94307298 72.44774299 282.90966196 82.41194206 282.86379844 C87.68671089 282.83988186 92.96138235 282.82114278 98.23620415 282.81488609 C103.20450209 282.80882823 108.17255096 282.78880279 113.14075661 282.75822449 C114.96076095 282.74945555 116.78079785 282.7457193 118.60082245 282.74749184 C131.30941199 282.89223821 131.30941199 282.89223821 143.375 279.3125 C149.45542888 273.23207112 148.59234705 266.72052843 148.61523438 258.59838867 C148.62491783 256.51765627 148.65594366 254.43792168 148.6875 252.35742188 C148.69403307 251.02344333 148.69928235 249.68945776 148.703125 248.35546875 C148.71714355 246.54598755 148.71714355 246.54598755 148.73144531 244.69995117 C148.3328874 240.91228611 147.35891298 238.54613803 145.375 235.3125 C139.33909207 230.45753058 134.0643524 230.164409 126.56059265 230.15428162 C125.78044558 230.14934364 125.00029851 230.14440566 124.19651061 230.13931805 C121.58633144 230.12397842 118.9761768 230.11559202 116.3659668 230.10717773 C114.49332972 230.09759643 112.6206948 230.0875862 110.74806213 230.07717896 C105.66588944 230.05015117 100.58370748 230.02913007 95.50150275 230.00917697 C90.18969012 229.98730432 84.87790598 229.95992188 79.56611633 229.93312073 C69.50816373 229.88321116 59.45019529 229.83826587 49.39221174 229.79509836 C37.94126702 229.74571117 26.4903509 229.69079853 15.03943384 229.63541877 C-8.51535076 229.52162536 -32.07016279 229.41478055 -55.625 229.3125 C-54.89250534 228.58888779 -54.16001068 227.86527557 -53.40531921 227.11973572 C-46.49386435 220.28946895 -39.59307289 213.44858762 -32.70250225 206.59725094 C-29.15989027 203.0754878 -25.61366522 199.55753181 -22.05883789 196.0480957 C-18.62652103 192.65933178 -15.20415047 189.26080791 -11.78837013 185.8553791 C-10.4853631 184.55974638 -9.17884804 183.26763156 -7.86874962 181.97916985 C-6.03020379 180.16978235 -4.20468308 178.34813372 -2.3815918 176.52319336 C-1.84068405 175.99666672 -1.29977631 175.47014008 -0.74247742 174.92765808 C2.81341112 171.332708 4.72422088 168.1113064 6.375 163.3125 C6.19332998 154.4106688 -1.10990272 148.48979618 -7 142.625 C-7.7425 141.86638672 -8.485 141.10777344 -9.25 140.32617188 C-13.86142729 135.71067088 -17.8758249 131.87088778 -24.5625 130.875 C-33.51314662 132.1536638 -39.41540131 139.67614452 -45.46972656 145.76904297 Z " fill="#FF4141" transform="translate(255.625,-0.3125)"/>
</svg>
