<?xml version="1.0" encoding="UTF-8"?>
<svg version="1.1" xmlns="http://www.w3.org/2000/svg" width="512" height="512">
<path d="M0 0 C1.49506828 -0.00855011 1.49506828 -0.00855011 3.02033997 -0.01727295 C5.12381958 -0.02666591 7.22731353 -0.03323404 9.33081055 -0.03710938 C12.46626386 -0.04671187 15.60103092 -0.07774776 18.73632812 -0.109375 C37.06799669 -0.20642713 55.14950937 1.41097995 72.95703125 5.953125 C73.98642822 6.20916504 75.0158252 6.46520508 76.07641602 6.72900391 C106.12461192 14.39881805 135.09170314 27.06515102 160.33203125 45.203125 C161.36457031 45.94175781 162.39710938 46.68039063 163.4609375 47.44140625 C178.83641392 58.72744696 194.1577381 71.46868967 206.33203125 86.203125 C207.52119141 87.54310547 207.52119141 87.54310547 208.734375 88.91015625 C216.81969775 98.07145001 223.66072858 107.98043235 230.33203125 118.203125 C230.74694824 118.83412109 231.16186523 119.46511719 231.58935547 120.11523438 C248.28347892 145.77221557 258.6659663 174.49992383 265.33203125 204.203125 C265.67524414 205.70770264 265.67524414 205.70770264 266.02539062 207.24267578 C272.88403408 238.93488444 272.51247863 276.61628101 265.33203125 308.203125 C265.08533691 309.3154248 264.83864258 310.42772461 264.58447266 311.57373047 C256.06704864 349.05771623 239.92675415 385.43881066 215.33203125 415.203125 C214.90212891 415.72777344 214.47222656 416.25242187 214.02929688 416.79296875 C196.66570978 437.93345289 196.66570978 437.93345289 186.546875 446.35546875 C184.80057848 447.8122558 183.09205148 449.31431859 181.3984375 450.83203125 C171.98960544 459.22554182 161.89432102 466.33660045 151.33203125 473.203125 C150.70248535 473.6165918 150.07293945 474.03005859 149.42431641 474.45605469 C132.22243994 485.65039649 113.12703963 494.33575813 93.57861328 500.49462891 C91.46635158 501.1607649 89.36631128 501.85699434 87.265625 502.55859375 C67.85099976 508.84014528 47.02648413 512.31296907 26.62890625 512.40625 C25.62982239 512.41195007 24.63073853 512.41765015 23.60137939 512.42352295 C21.49370359 512.43291519 19.38601348 512.43948375 17.27832031 512.44335938 C14.13188282 512.45297269 10.98612599 512.484014 7.83984375 512.515625 C-9.65429015 512.60741062 -26.8143712 510.99041257 -43.85546875 506.890625 C-44.75507324 506.67897705 -45.65467773 506.4673291 -46.58154297 506.24926758 C-77.60818584 498.7530256 -107.75909408 485.97995865 -133.66796875 467.203125 C-134.69535156 466.46707031 -135.72273438 465.73101562 -136.78125 464.97265625 C-152.16713654 453.69765509 -167.49302287 440.93835033 -179.66796875 426.203125 C-180.85712891 424.86314453 -180.85712891 424.86314453 -182.0703125 423.49609375 C-190.15563525 414.33479999 -196.99666608 404.42581765 -203.66796875 394.203125 C-204.29034424 393.25663086 -204.29034424 393.25663086 -204.92529297 392.29101562 C-221.61941642 366.63403443 -232.0019038 337.90632617 -238.66796875 308.203125 C-238.89677734 307.20007324 -239.12558594 306.19702148 -239.36132812 305.16357422 C-246.21997158 273.47136556 -245.84841613 235.78996899 -238.66796875 204.203125 C-238.29792725 202.53467529 -238.29792725 202.53467529 -237.92041016 200.83251953 C-229.40230518 163.34553699 -213.25995531 126.97237189 -188.66796875 97.203125 C-188.03109131 96.42412842 -188.03109131 96.42412842 -187.38134766 95.62939453 C-177.95960976 84.12866523 -168.15089529 72.69086652 -156.66796875 63.203125 C-155.77464844 62.41035156 -154.88132812 61.61757813 -153.9609375 60.80078125 C-144.79964374 52.7154585 -134.8906614 45.87442767 -124.66796875 39.203125 C-124.03697266 38.78820801 -123.40597656 38.37329102 -122.75585938 37.94580078 C-87.06804866 14.72495835 -42.69026882 0.19588974 0 0 Z " fill="#FF4141" transform="translate(242.66796875,-0.203125)"/>
<path d="M0 0 C0.79019531 -0.04253906 1.58039063 -0.08507812 2.39453125 -0.12890625 C11.0191588 2.00614141 17.83311829 10.92284423 23.87036133 16.98657227 C24.92043571 18.03393157 25.97093399 19.08086602 27.02182007 20.12741089 C29.85463903 22.95116852 32.68116321 25.7811474 35.50626969 28.61261868 C38.47136385 31.58280136 41.44136301 34.54807303 44.41056824 37.5141449 C49.3911638 42.49111081 54.36754737 47.47225896 59.34155273 52.45581055 C65.08755798 58.21271636 70.84075673 63.96235786 76.59770948 69.70831448 C81.55018596 74.65171094 86.49874937 79.59899919 91.44407099 84.54955333 C94.39360708 87.50220287 97.34446705 90.45349522 100.29886818 93.40127754 C103.07364217 96.17026769 105.84346541 98.94411727 108.60956955 101.72176743 C109.62409809 102.73893621 110.64032454 103.75441479 111.65838051 104.76805305 C113.04969815 106.15388941 114.43423434 107.54652407 115.81843567 108.93946838 C116.59433454 109.7161213 117.3702334 110.49277422 118.16964436 111.29296207 C122.12019437 115.73625469 123.6179182 118.97462355 123.625 124.9375 C123.65400391 126.55785156 123.65400391 126.55785156 123.68359375 128.2109375 C122.33465398 137.32424711 115.04269986 143.12918128 108.80688477 149.31542969 C107.73990015 150.38484518 106.67356175 151.45490577 105.6078186 152.52555847 C102.72419258 155.41855478 99.83129003 158.30210399 96.93631101 161.18373394 C93.90293057 164.20576281 90.87730355 167.23553716 87.85057068 170.26422119 C82.76910091 175.34657256 77.68169742 180.42292334 72.59057617 185.49560547 C66.70841909 191.35657995 60.83515699 197.22635161 54.96670109 203.10104251 C49.31382893 208.75961241 43.65529832 214.41248952 37.99397087 220.06259918 C35.58764192 222.46428935 33.18320079 224.86784629 30.78024483 227.27291107 C27.95063667 230.10440517 25.11606992 232.93084136 22.27762222 235.75347328 C21.23788872 236.78897096 20.19983692 237.82616045 19.16361427 238.86517143 C17.7470109 240.28500731 16.32361993 241.69806131 14.8999176 243.11077881 C13.70891874 244.29869837 13.70891874 244.29869837 12.49385929 245.5106163 C8.72262351 248.86574716 5.48507961 251.00116931 0.375 251.125 C-0.81029297 251.18880859 -0.81029297 251.18880859 -2.01953125 251.25390625 C-9.47870898 249.40736855 -15.36380928 242.35039727 -20.625 237.0625 C-21.27919922 236.42441406 -21.93339844 235.78632813 -22.60742188 235.12890625 C-27.03385508 230.70699443 -31.23618941 226.19158353 -31.25 219.5625 C-31.26933594 218.94375 -31.28867188 218.325 -31.30859375 217.6875 C-29.9695965 211.95195274 -25.19423434 207.66077709 -21.12597656 203.64892578 C-20.56943893 203.0920961 -20.01290131 202.53526642 -19.4394989 201.96156311 C-17.6154123 200.13885974 -15.78436515 198.32332624 -13.953125 196.5078125 C-12.68045081 195.23887202 -11.40822011 193.9694866 -10.13641357 192.69967651 C-6.80028814 189.37115933 -3.4581988 186.04869429 -0.11480713 182.72747803 C3.30080114 179.3323888 6.71070089 175.93157669 10.12109375 172.53125 C16.80433926 165.86940483 23.49390293 159.21394307 30.1875 152.5625 C29.19412848 152.56195523 28.20075697 152.56141047 27.17728329 152.56084919 C3.00703016 152.54645416 -21.16304286 152.50343909 -45.33319187 152.43040943 C-57.02170969 152.39575547 -68.71010953 152.37040336 -80.39868164 152.36694336 C-90.58638059 152.36390405 -100.77386944 152.34341783 -110.96148723 152.30197543 C-116.3558704 152.28064095 -121.74995483 152.26804724 -127.14438057 152.27634621 C-132.22278125 152.28388334 -137.30057647 152.26807689 -142.3788662 152.23443985 C-144.24163657 152.22620257 -146.1044671 152.22646135 -147.96723175 152.23590279 C-150.51410905 152.24753264 -153.05900461 152.22839626 -155.60572815 152.20173645 C-156.34018223 152.21240971 -157.07463631 152.22308297 -157.83134657 152.23407966 C-163.45355906 152.12453476 -166.76718885 150.22237582 -170.8125 146.5625 C-173.5099446 143.08604197 -173.15230154 138.96355695 -173.18359375 134.7265625 C-173.19713646 133.59110489 -173.19713646 133.59110489 -173.21095276 132.43270874 C-173.22543293 130.8340855 -173.23433645 129.23540329 -173.23803711 127.63671875 C-173.24992869 125.20209978 -173.29912503 122.77002153 -173.34960938 120.3359375 C-173.3590753 118.77865814 -173.36630953 117.22136328 -173.37109375 115.6640625 C-173.39062607 114.94199615 -173.41015839 114.21992981 -173.43028259 113.47598267 C-173.3965381 109.65963965 -172.86333098 107.14035301 -170.52758789 104.18115234 C-165.84292349 99.66287967 -162.34365358 99.26742559 -155.9664917 99.2840271 C-155.17086484 99.2782347 -154.37523798 99.2724423 -153.55550122 99.26647437 C-150.88689476 99.24945584 -148.21846105 99.24659628 -145.54980469 99.24365234 C-143.63790461 99.23435545 -141.7260086 99.22418713 -139.81411743 99.21321106 C-134.6203137 99.18587013 -129.42653716 99.17074951 -124.23268032 99.15778303 C-118.80606906 99.14217041 -113.37951346 99.11537424 -107.95294189 99.0897522 C-97.6753823 99.0429313 -87.39781227 99.00620321 -77.1202004 98.97307932 C-65.42017494 98.93488133 -53.72020535 98.88546509 -42.02022696 98.83509517 C-17.95102602 98.73172607 6.11821079 98.64248185 30.1875 98.5625 C29.45278473 97.83444656 28.71806946 97.10639313 27.96109009 96.35627747 C21.03726698 89.49327578 14.12138374 82.62236147 7.21319008 75.74362659 C3.6613843 72.207475 0.10684269 68.67416757 -3.45410156 65.1472168 C-6.89065741 61.74326257 -10.3198278 58.33202708 -13.74400711 54.91562462 C-15.05151783 53.61365591 -16.36166575 52.3143301 -17.67448044 51.01770973 C-19.51318861 49.20078587 -21.34228546 47.37468096 -23.16943359 45.54614258 C-23.71393661 45.01242538 -24.25843964 44.47870819 -24.81944275 43.92881775 C-29.60015087 39.10861399 -30.96887862 35.46448247 -31.2734375 28.72265625 C-29.79623697 21.79984359 -23.1822968 16.6330333 -18.375 11.875 C-17.62412109 11.11638672 -16.87324219 10.35777344 -16.09960938 9.57617188 C-15.36677734 8.84591797 -14.63394531 8.11566406 -13.87890625 7.36328125 C-13.21834229 6.70497314 -12.55777832 6.04666504 -11.87719727 5.3684082 C-8.18640402 2.14021882 -4.95502386 0.12007328 0 0 Z " fill="#FFFEFE" transform="translate(280.8125,130.4375)"/>
</svg>
